# xmcd
#
# Track frame offsets: 
#        150
#        18450
#        32487
#        47830
#        65682
#        82180
#        98230
#        111260
#        127917
#        141135
#
# Disc length: 2060 seconds
#
# Revision: 2
# Processed by: cddbd v1.5.2PL0 Copyright (c) Steve Scherf et al.
# Submitted via: ExactAudioCopy v1.0b6
#
DISCID=87080a0a
DTITLE=Reba McEntire - Just A Little Love
DYEAR=1984
DGENRE=Country
TTITLE0=Just A Little Love
TTITLE1=Poison Sugar
TTITLE2=I'm Getin' Over You
TTITLE3=You Are Always There For Me
TTITLE4=Every Second Someone Breaks A Heart
TTITLE5=Tell Me What's So Good About Goodbye
TTITLE6=He Broke Your Memory Last Night
TTITLE7=If Only
TTITLE8=Congratulations
TTITLE9=Silver Eagle
EXTD=
EXTT0=
EXTT1=
EXTT2=
EXTT3=
EXTT4=
EXTT5=
EXTT6=
EXTT7=
EXTT8=
EXTT9=
PLAYORDER=
